<?xml version="1.0" encoding="utf-8"?>
<!-- Generator: Adobe Illustrator 23.0.3, SVG Export Plug-In . SVG Version: 6.00 Build 0)  -->
<svg version="1.1" id="Layer_1" xmlns="http://www.w3.org/2000/svg" xmlns:xlink="http://www.w3.org/1999/xlink" x="0px" y="0px"
	 viewBox="0 0 78 78" style="enable-background:new 0 0 78 78;" xml:space="preserve">
<style type="text/css">
	.st0{fill:#DD0000;}
</style>
<title>icn_top_1</title>
<g>
	<g id="Layer_1-2">
		<g id="QYr3E9.tif">
			<path class="st0" d="M39.1,0C60.7,0.1,78.1,17.6,78,39.1C77.9,60.7,60.4,78.1,38.9,78S-0.1,60.4,0,38.9c0-0.1,0-0.2,0-0.3
				C0.3,17.2,17.7,0,39.1,0z M42,27.4l0.4-0.2l7.4,7.5c1.5,1.5,3.3,1.7,4.7,0.4s1.3-3.1-0.2-4.7c-4.5-4.6-9-9.1-13.6-13.6
				c-1.3-1.3-2.4-1.3-3.8,0.1s-2.8,2.8-4.2,4.2c-3.1,3.1-6.3,6.2-9.3,9.4c-1.8,1.8-1.4,4.4,0.8,5.2c1.3,0.5,2.8,0.1,3.7-1
				c2.5-2.5,5-5.1,7.9-8v2.4c0,9.5,0,18.9,0,28.4c0,0.8,0.1,1.5,0.3,2.3c0.4,1.6,2.1,2.6,3.7,2.1c1-0.3,1.9-1.1,2.1-2.1
				c0.1-0.7,0.2-1.5,0.2-2.2c0-9.5,0-18.9,0-28.4C42,28.6,42,28,42,27.4z"/>
		</g>
	</g>
</g>
</svg>
