<svg xmlns="http://www.w3.org/2000/svg" viewBox="0 0 159 44"><defs><style>.cls-1{fill:#1d1e1f;}.cls-2{fill:#b40000;}.cls-3{fill:#d00;}.cls-4{fill:#fff;}</style></defs><title>Asset 1</title><g id="Layer_2" data-name="Layer 2"><g id="Layer_1-2" data-name="Layer 1"><rect class="cls-1" width="159" height="44"/><polygon class="cls-2" points="126 44 0 44 0 0 147 0 126 44"/><polygon class="cls-3" points="115 44 0 44 0 0 136 0 115 44"/><path class="cls-4" d="M47.92,27.05a11.93,11.93,0,0,1-.66,2.3,3.78,3.78,0,0,1-1.62,1.77,7.25,7.25,0,0,1-3.52.71h-12l2.57-12.07h4.78L36,27.05h7.18l2-9.56h-12l1-4.78h12a5.38,5.38,0,0,1,3.28.76,2.3,2.3,0,0,1,.8,1.91,5.67,5.67,0,0,1-.1,1c0,.15-.09.51-.22,1.08Z"/><path class="cls-4" d="M64.68,31.83H59.9l1.52-7.17H54.25l-1.53,7.17H47.94l2.54-12h12L63,17.49H51a12.16,12.16,0,0,1,.66-2.3,3.78,3.78,0,0,1,1.62-1.77,7.25,7.25,0,0,1,3.52-.71H64a5.4,5.4,0,0,1,3.29.76,2.3,2.3,0,0,1,.8,1.91,5.67,5.67,0,0,1-.1,1c0,.15-.1.51-.22,1.08Z"/><path class="cls-4" d="M84,24.66l-8.7,7.17h-2.4l-5.65-7.17,1-4.78h4.78l-.76,3.59,2.83,3.58,4.34-3.59,2.29-10.75h4.79ZM73.57,17.49H68.78l1-4.78h4.79Z"/><path class="cls-4" d="M88.27,31.83H83.49L86,19.88h4.78Zm3-14.34H86.53l1-4.78h4.79Z"/><path class="cls-4" d="M107,27.05a11.93,11.93,0,0,1-.66,2.3,3.78,3.78,0,0,1-1.62,1.77,7.25,7.25,0,0,1-3.52.71h-12l2.57-12.07h4.78L95,27.05h7.18l2-9.56h-12l1-4.78h12a5.42,5.42,0,0,1,3.29.76,2.3,2.3,0,0,1,.8,1.91,5.67,5.67,0,0,1-.1,1c0,.15-.1.51-.22,1.08Z"/></g></g></svg>